HIERARCHY
ROOT Hips
{
	OFFSET -3.958830 18.904000 13.208200
	CHANNELS 6 Xposition Yposition Zposition Zrotation Yrotation Xrotation 
	JOINT LHipJoint
	{
		OFFSET 0.000000 0.000000 0.000000
		CHANNELS 3 Zrotation Yrotation Xrotation
		JOINT LeftUpLeg
		{
			OFFSET 1.800000 -1.400000 0.085000
			CHANNELS 3 Zrotation Yrotation Xrotation
			JOINT LeftLeg
			{
				OFFSET 2.215000 -6.000000 0.000000
				CHANNELS 3 Zrotation Yrotation Xrotation
				JOINT LeftFoot
				{
					OFFSET 2.500000 -6.900000 0.000000
					CHANNELS 3 Zrotation Yrotation Xrotation
					JOINT LeftToeBase
					{
						OFFSET 0.200000 -0.500000 1.950000
						CHANNELS 3 Zrotation Yrotation Xrotation
						End Site
						{
							OFFSET 0.000000 0.000000 0.000000
						}
					}
				}
			}
		}
	}
	JOINT RHipJoint
	{
		OFFSET 0.000000 0.000000 0.000000
		CHANNELS 3 Zrotation Yrotation Xrotation
		JOINT RightUpLeg
		{
			OFFSET -1.800000 -1.400000 0.085000
			CHANNELS 3 Zrotation Yrotation Xrotation
			JOINT RightLeg
			{
				OFFSET -2.215000 -6.000000 0.000000
				CHANNELS 3 Zrotation Yrotation Xrotation
				JOINT RightFoot
				{
					OFFSET -2.500000 -6.900000 0.000000
					CHANNELS 3 Zrotation Yrotation Xrotation
					JOINT RightToeBase
					{
						OFFSET -0.200000 -0.500000 1.950000
						CHANNELS 3 Zrotation Yrotation Xrotation
						End Site
						{
							OFFSET 0.000000 0.000000 0.000000
						}
					}
				}
			}
		}
	}
	JOINT LowerBack
	{
		OFFSET 0.000000 0.000000 0.000000
		CHANNELS 3 Zrotation Yrotation Xrotation
		JOINT Spine
		{
			OFFSET -0.087000 1.940000 -0.288900
			CHANNELS 3 Zrotation Yrotation Xrotation
			JOINT Spine1
			{
				OFFSET 0.000000 1.950000 0.060000
				CHANNELS 3 Zrotation Yrotation Xrotation
				JOINT Neck
				{
					OFFSET 0.000000 0.000000 0.000000
					CHANNELS 3 Zrotation Yrotation Xrotation
					JOINT Neck1
					{
						OFFSET 0.000000 1.600000 0.340000
						CHANNELS 3 Zrotation Yrotation Xrotation
						JOINT Head
						{
							OFFSET 0.000000 1.667000 -0.240000
							CHANNELS 3 Zrotation Yrotation Xrotation
							End Site
							{
								OFFSET 0.000000 0.000000 0.000000
							}
						}
					}
				}
				JOINT LeftShoulder
				{
					OFFSET 0.000000 0.000000 0.000000
					CHANNELS 3 Zrotation Yrotation Xrotation
					JOINT LeftArm
					{
						OFFSET 2.700000 1.550000 -0.730000
						CHANNELS 3 Zrotation Yrotation Xrotation
						JOINT LeftForeArm
						{
							OFFSET 5.450000 0.000000 0.000000
							CHANNELS 3 Zrotation Yrotation Xrotation
							JOINT LeftHand
							{
								OFFSET 3.450000 0.000000 0.000000
								CHANNELS 3 Zrotation Yrotation Xrotation
								JOINT LeftHandIndex1
								{
									OFFSET 0.750000 0.000000 0.000000
									CHANNELS 3 Zrotation Yrotation Xrotation
									End Site
									{
										OFFSET 0.000000 0.000000 0.000000
									}
								}
							}
						}
					}
				}
				JOINT RightShoulder
				{
					OFFSET 0.000000 0.000000 0.000000
					CHANNELS 3 Zrotation Yrotation Xrotation
					JOINT RightArm
					{
						OFFSET -2.700000 1.550000 -0.730000
						CHANNELS 3 Zrotation Yrotation Xrotation
						JOINT RightForeArm
						{
							OFFSET -5.450000 0.000000 0.000000
							CHANNELS 3 Zrotation Yrotation Xrotation
							JOINT RightHand
							{
								OFFSET -3.450000 0.000000 0.000000
								CHANNELS 3 Zrotation Yrotation Xrotation
								JOINT RightHandIndex1
								{
									OFFSET -0.750000 0.000000 0.000000
									CHANNELS 3 Zrotation Yrotation Xrotation
									End Site
									{
										OFFSET 0.000000 0.000000 0.000000
									}
								}
							}
						}
					}
				}
			}
		}
	}
}
MOTION
Frames: 12
Frame Time: 0.016667
0.252870 13.266770 -2.094290 -24.431918 8.330042 43.782921 -15.998021 7.977079 8.468406 -8.352027 -36.403541 -80.362640 22.042408 3.357144 108.880745 2.938614 17.278478 -0.679691 0.676190 0.474100 0.563120 18.470446 -6.134639 3.734042 -30.169546 6.286071 -26.391849 57.566067 -25.851024 28.762919 -2.140467 -9.858806 1.029356 0.069820 0.013770 0.192140 -2.798354 -2.731393 -11.391869 2.081890 -0.137771 52.323463 -5.229337 7.465468 7.753123 6.585813 -9.536963 -28.849681 -24.774771 4.835656 41.865596 3.073340 -2.875850 -20.026780 -3.247898 -41.681357 4.998331 -2.604726 -29.478460 -6.172898 21.196610 -4.247353 -2.894655 -3.734590 2.999851 0.655000 -0.251810 0.345730 0.261790 -3.107383 59.235092 4.233703 3.946242 32.611252 -5.380413 -9.467023 2.353809 -0.519350 3.978865 -1.037271 0.047670 0.263210 -0.266460 -0.002070 
0.239820 13.223620 -2.027730 -27.541839 6.777724 41.190640 -16.088836 8.196785 8.848593 -13.910830 -37.256879 -77.140104 33.327559 -10.664268 105.385682 3.159761 17.901224 -0.784255 0.709100 0.521880 0.597420 18.415483 -5.979620 3.416374 -28.250529 6.915384 -22.659968 56.716479 -25.486461 29.035504 -2.163975 -9.762694 1.059222 0.093360 -0.018790 0.157470 -2.601192 -3.624261 -11.607382 -5.844602 -4.296697 54.372847 -8.037067 0.866970 13.807126 11.837646 -6.258235 -37.518016 -30.434116 6.915879 38.213243 3.196440 -2.802040 -20.703790 -0.024302 -22.843092 -4.346221 -3.296285 -30.100049 -6.930309 22.914761 -5.496163 -3.296093 -3.685362 3.179815 0.681730 -0.292340 0.383640 0.278280 -17.641237 39.564317 46.099798 -66.183889 34.225523 -173.087377 -0.613629 10.392781 -0.318761 3.533486 -2.266144 0.042150 0.298530 -0.304470 -0.001760 
0.211720 13.201940 -1.906180 -30.203141 5.731022 37.662656 -16.137935 8.308666 8.841724 -22.850986 -35.950600 -67.843723 43.048217 -19.342321 93.342569 3.359974 18.467829 -0.854364 0.722010 0.556380 0.617090 18.345146 -6.301084 2.969010 -25.587369 6.681207 -15.605470 54.476290 -23.247210 27.012437 -2.107621 -9.313818 1.242428 0.098780 -0.036950 0.098620 -2.490647 -3.511268 -11.199821 -5.529979 -3.297342 53.815520 -8.528868 1.490229 15.438821 12.380585 -6.397186 -36.604739 -32.829328 7.846375 37.422989 3.288890 -2.544790 -22.375750 -1.140049 -23.761011 -3.283278 -3.155323 -28.069053 -5.944782 21.702194 -3.938772 -2.801793 -3.711095 2.862135 0.735550 -0.343680 0.436520 0.312880 -16.546687 40.280388 46.376573 -66.591944 33.835381 -174.100740 2.078658 9.285266 -0.169597 2.286752 -2.760394 0.015550 0.382360 -0.345320 0.006050 
0.157510 13.149070 -1.770880 -31.186013 2.722851 34.082043 -16.180945 8.503264 8.899335 -32.896318 -34.169150 -58.183331 46.034877 -19.186186 85.909824 3.166064 17.798679 -0.759206 0.716150 0.521920 0.663840 18.254936 -6.488875 2.743810 -26.444366 5.852527 -8.630464 53.012953 -20.939835 23.408017 -2.018701 -8.916080 1.330596 0.074060 -0.077900 0.131240 -2.373288 -3.755588 -11.146124 -8.186582 0.331367 52.418830 -7.849449 2.133335 16.794911 11.369265 -5.632987 -36.442485 -30.575889 9.036759 41.154026 2.530740 -1.016560 -24.059150 -2.365928 -24.906052 -2.628172 -2.744125 -26.466284 -5.970925 21.216537 -4.997764 -2.833457 -3.692848 2.838180 0.804640 -0.354490 0.467220 0.253670 -14.143766 39.619626 46.587432 -67.631250 35.438707 -175.568931 5.530016 8.771925 -0.059954 2.365418 -2.988953 0.010300 0.362660 -0.304320 -0.049510 
0.064260 13.115060 -1.629190 -36.341632 -5.455559 30.189810 -16.150908 9.169387 8.173594 -35.365940 -28.728577 -57.570341 41.753048 -13.509403 83.283746 2.671331 16.151537 -0.475197 0.841600 0.680970 0.759530 18.091774 -6.947231 2.893710 -27.439716 7.860169 -6.149594 49.699378 -19.845861 24.426305 -2.016831 -8.943765 1.268435 0.180320 -0.146180 0.175210 -2.283006 -3.638794 -10.653634 -11.892692 6.452142 47.278050 -8.309254 5.217731 21.491106 10.793631 -6.326624 -34.672766 -28.574175 8.444341 40.117556 1.516020 0.467670 -27.240990 0.007797 -23.640697 -2.585276 -3.135767 -25.511330 -3.699578 18.934788 -0.287670 -2.029723 -3.820942 2.707980 0.822900 -0.364130 0.537170 0.270800 -15.748171 39.893418 45.281372 -68.141956 35.168070 -177.752267 11.575866 10.048604 -0.557968 1.933205 -3.619711 0.044210 0.339930 -0.368610 -0.068630 
0.006960 13.008290 -1.467370 -41.430049 -8.111647 28.037505 -16.067745 9.312803 7.924291 -35.603272 -26.182018 -54.751100 39.924491 -11.903712 79.247027 2.225428 15.218114 -0.335534 0.883690 0.725280 0.838360 18.077164 -7.413926 2.841206 -25.879156 7.835403 -1.192072 48.840940 -19.679375 23.116687 -2.016359 -8.944891 1.247110 0.280750 -0.137300 0.202590 -2.393460 -3.146097 -10.453313 -8.773471 5.265883 42.261522 -12.340871 7.089531 26.295286 10.076023 -5.706978 -32.915939 -23.600098 8.563540 40.023403 -1.801690 2.821610 -28.858620 0.268425 -23.305008 -0.938499 -3.951700 -22.391370 -3.867679 20.149438 -0.015087 -2.256186 -3.939731 2.683297 0.845010 -0.291450 0.525130 0.228050 -17.219198 37.040770 43.177734 -71.080437 37.126124 -175.921484 17.379071 13.694825 -1.544918 2.327641 -4.012997 -0.017090 0.380190 -0.333740 -0.143230 
-0.051390 12.941750 -1.318430 -45.037403 -9.563028 26.244718 -15.910985 9.484089 7.665768 -37.842396 -22.620184 -48.243416 35.808525 -8.492278 70.223799 1.626960 12.986062 0.197164 0.912120 0.759620 0.906330 18.125889 -7.959733 2.829111 -24.686009 7.695115 1.751233 46.254717 -19.942006 23.937693 -1.989577 -9.045861 1.196828 0.330080 -0.146880 0.252190 -2.660647 -2.526685 -10.354218 -5.347589 4.434200 38.805554 -15.316814 8.270717 28.757839 9.139520 -4.237548 -30.819330 -17.349069 8.551132 40.672662 -5.223500 5.133260 -28.521520 -0.758574 -22.458390 0.204797 -3.943511 -19.852400 -3.668976 19.574858 -3.564451 -2.497318 -3.900781 2.794779 0.791950 -0.215040 0.511060 0.195580 -16.849525 32.876519 41.471534 -73.970770 39.716981 -173.684355 23.655929 16.508326 -2.321648 3.288162 -4.362549 -0.008640 0.336590 -0.333650 -0.181380 
-0.065090 12.909290 -1.217570 -45.618465 -7.165321 26.360949 -15.621468 8.680893 7.727992 -39.774887 -20.890994 -39.878962 32.032276 -6.272431 55.858930 0.936335 9.909704 1.099316 0.893790 0.756790 0.884830 18.378199 -8.754698 2.917063 -24.557470 5.933858 1.048845 45.799361 -21.006781 24.290373 -1.962109 -9.239017 1.151029 0.353640 -0.059250 0.306330 -3.376915 -0.036771 -10.572976 2.085714 8.006622 35.487493 -9.384981 12.691530 21.051214 5.662684 -3.225611 -18.625338 -5.508010 6.762288 44.248448 -6.542230 7.540590 -25.951980 -5.488679 -38.375683 11.803656 -7.057641 -19.899643 -0.401757 15.579457 -0.416441 -1.565484 -3.830639 2.875161 0.680430 -0.084250 0.440830 0.206320 -4.535969 47.501401 1.437192 13.224176 45.890449 -6.669805 -9.787557 36.237077 -3.004583 2.745069 -0.883606 -0.004560 0.299990 -0.321910 -0.171140 
-0.071650 12.948210 -1.091160 -48.253802 -8.018754 24.363100 -15.431945 8.965957 6.957906 -38.873233 -16.301055 -33.704299 29.407917 -4.232589 44.221507 0.329489 7.599764 1.836487 0.847400 0.661910 0.881170 18.494436 -9.298677 2.930605 -23.458737 6.403155 -0.079619 42.434912 -22.238384 29.087625 -1.953112 -9.615168 1.000789 0.352060 0.003550 0.338150 -3.767276 0.708277 -9.930937 4.052041 7.891847 33.026285 -9.818270 12.437660 22.361326 5.929913 -2.512942 -15.620632 -3.523223 7.730962 41.623727 -6.691980 8.680270 -24.665720 -6.376964 -37.546426 12.671160 -6.923671 -19.266484 0.922504 12.658416 0.982716 -1.269317 -3.935955 2.756005 0.676060 -0.017800 0.373910 0.163110 -4.702632 45.892598 -0.588642 12.754780 44.730503 -8.015869 -5.599907 46.082333 -2.614329 2.080192 -1.248071 -0.061590 0.292730 -0.257730 -0.209740 
-0.026560 12.911580 -0.987130 -47.909365 -2.876284 22.949726 -15.250911 8.919295 6.660610 -38.700924 -14.242444 -26.445597 27.016817 -3.427053 33.756526 -0.032240 5.665479 2.532663 0.848990 0.664840 0.887020 18.680435 -9.598379 2.937114 -22.863083 5.111307 -1.609000 42.268370 -24.748926 32.480865 -2.079570 -10.043913 0.881537 0.350410 0.028280 0.374920 -4.242198 1.239299 -9.673909 7.950701 4.633980 31.367720 -11.342691 8.717464 22.643786 6.998637 -1.180538 -13.410099 -0.730943 8.210624 40.289556 -7.950410 9.814300 -24.459490 -7.361480 -36.866469 13.563109 -8.059179 -18.647933 1.366498 11.574886 0.159026 -1.196602 -3.903483 2.782333 0.650040 0.016920 0.380620 0.188570 -5.714491 42.512402 -2.122814 13.736612 44.035109 -7.190046 -4.142401 55.667215 -3.146264 1.791558 -1.450492 -0.050750 0.280340 -0.275360 -0.195590 
-0.041120 13.037950 -0.828310 -48.650389 -4.454252 17.211407 -15.390830 10.149814 5.923604 -31.178771 -12.461744 -26.482243 16.314616 0.695862 41.282577 0.057874 6.064793 2.385279 0.855110 0.641500 0.927200 18.376022 -9.873805 2.725570 -21.593120 5.308590 -1.215553 32.652606 -22.832078 37.843760 -1.957932 -9.942182 0.911462 0.312990 -0.035570 0.361190 -3.542070 0.080992 -9.063190 3.121370 6.478283 34.931698 -8.983096 10.145348 22.366154 7.038374 0.006763 -12.953486 1.244488 8.314528 39.676871 -7.689030 10.886210 -24.405650 -8.649202 -35.539375 13.949105 -7.701833 -15.793450 0.180027 11.937018 -3.690200 -1.411073 -3.734618 2.883049 0.667310 -0.030890 0.398910 0.184150 -5.176707 42.624991 -2.256770 8.815110 38.977529 -11.046750 1.547984 68.296809 -2.465254 1.822584 -1.843808 -0.036640 0.216180 -0.325130 -0.214820 
-0.075270 13.085720 -0.759120 -54.139014 -10.441045 14.447980 -15.142909 11.123068 5.000014 -23.275460 -8.727707 -29.354177 10.733944 3.931820 42.131742 0.047100 6.110221 2.370951 0.794760 0.562500 0.890710 18.415677 -10.895930 2.590842 -15.841436 7.246016 -8.243262 16.255574 -16.445653 48.386328 -1.620382 -9.331565 1.090438 0.256300 -0.002870 0.358810 -3.829157 0.907280 -8.516976 6.524919 8.303527 36.339071 -10.315162 13.067770 20.350616 7.608027 -0.430705 -12.582429 0.819626 8.424897 38.455154 -7.832950 11.530380 -22.240590 -8.778198 -33.735402 13.520501 -8.653414 -16.154597 0.834128 9.874117 -4.437851 -1.164741 -3.711124 2.911662 0.614900 -0.007350 0.353530 0.183750 -6.723749 41.729201 -2.349971 7.825669 38.128445 -10.740932 -7.852986 74.891586 -9.370033 1.906701 -1.773353 -0.035280 0.177240 -0.322720 -0.197350 
